<svg width="24" height="24" viewBox="0 0 24 24" fill="none" xmlns="http://www.w3.org/2000/svg">
  <rect width="24" height="24" rx="6" fill="#1E54A5"/>
  <path d="M6 7.5H11C12.1046 7.5 13 8.39543 13 9.5V9.5C13 10.6046 12.1046 11.5 11 11.5H6V7.5Z" fill="#F89920"/>
  <path d="M6 11.5H10.5C11.6046 11.5 12.5 12.3954 12.5 13.5V13.5C12.5 14.6046 11.6046 15.5 10.5 15.5H6V11.5Z" fill="#F89920"/>
  <path d="M14 7.5H18C19.1046 7.5 20 8.39543 20 9.5V13.5C20 14.6046 19.1046 15.5 18 15.5H14C12.8954 15.5 12 14.6046 12 13.5V9.5C12 8.39543 12.8954 7.5 14 7.5Z" fill="#F89920"/>
  <path d="M7 17H17" stroke="white" stroke-width="2" stroke-linecap="round"/>
</svg>